<svg data-name="Layer 1" xmlns="http://www.w3.org/2000/svg" width="20" height="20" viewBox="0 0 20 20">
    <title>
        computer
    </title>
    <path d="M15.58 18H4.42a.51.51 0 0 0 0 1h11.16a.51.51 0 0 0 0-1zM9 13h2v5H9z"/>
    <path d="M18.38 1H1.63a.62.62 0 0 0-.63.63v10.75a.63.63 0 0 0 .63.63h16.75a.63.63 0 0 0 .63-.62V1.63a.62.62 0 0 0-.63-.63zm-1.85 11.34a.38.38 0 1 1 .38-.37.38.38 0 0 1-.38.37zm1 0a.38.38 0 1 1 .38-.37.38.38 0 0 1-.35.34zm.47-1.96a.63.63 0 0 1-.62.63H2.63a.63.63 0 0 1-.63-.63V2.63A.62.62 0 0 1 2.63 2h14.75a.62.62 0 0 1 .63.63z"/>
</svg>
