<svg data-name="Layer 1" xmlns="http://www.w3.org/2000/svg" width="20" height="20" viewBox="0 0 20 20">
    <title>
        menu
    </title>
    <rect x="2.49" y="2.58" width="14.92" height="3.46" rx="1.18" ry="1.18"/>
    <path d="M16.23 3.08a.69.69 0 0 1 .68.68v1.1a.69.69 0 0 1-.68.68H3.67A.69.69 0 0 1 3 4.86v-1.1a.69.69 0 0 1 .68-.68h12.55m0-1H3.67A1.68 1.68 0 0 0 2 3.76v1.1a1.68 1.68 0 0 0 1.67 1.68h12.56a1.68 1.68 0 0 0 1.68-1.68v-1.1a1.68 1.68 0 0 0-1.68-1.68z"/>
    <rect x="2.49" y="14.04" width="14.92" height="3.46" rx="1.18" ry="1.18"/>
    <path d="M16.23 14.54a.69.69 0 0 1 .68.68v1.1a.69.69 0 0 1-.68.68H3.67a.69.69 0 0 1-.67-.68v-1.1a.69.69 0 0 1 .68-.68h12.55m0-1H3.67A1.68 1.68 0 0 0 2 15.22v1.1A1.68 1.68 0 0 0 3.67 18h12.56a1.68 1.68 0 0 0 1.68-1.68v-1.1a1.68 1.68 0 0 0-1.68-1.68z"/>
    <g>
        <rect x="2.48" y="8.31" width="14.92" height="3.46" rx="1.18" ry="1.18"/>
        <path d="M16.22 8.81a.69.69 0 0 1 .68.68v1.1a.69.69 0 0 1-.68.68H3.66a.69.69 0 0 1-.66-.68v-1.1a.69.69 0 0 1 .68-.68h12.54m0-1H3.66A1.68 1.68 0 0 0 2 9.49v1.1a1.68 1.68 0 0 0 1.68 1.68h12.54a1.68 1.68 0 0 0 1.68-1.68v-1.1a1.68 1.68 0 0 0-1.68-1.68z"/>
    </g>
</svg>
