<?xml version="1.0" encoding="utf-8"?><svg xmlns="http://www.w3.org/2000/svg" xmlns:xlink="http://www.w3.org/1999/xlink"><symbol viewBox="0 0 40 40" id="cogs"><title>cogs</title><path d="M26.79 23.54h-.56l-1.08-3-.26-.06a7.7 7.7 0 0 1-2-.84l-.23-.13-2.92 1.38a10.67 10.67 0 0 1-.79-.78l1.39-2.9-.14-.23a7.55 7.55 0 0 1-.84-2l-.07-.26-3-1.07v-1.1l3-1.07.07-.26a7.55 7.55 0 0 1 .84-2l.14-.23L18.92 6a10.68 10.68 0 0 1 .79-.78l2.92 1.38.23-.13a7.7 7.7 0 0 1 2-.84l.26-.06 1.08-3h1.12l1.08 3 .26.06a7.7 7.7 0 0 1 2 .84l.23.13 2.92-1.38a10.67 10.67 0 0 1 .79.78l-1.39 2.9.14.23a7.6 7.6 0 0 1 .84 2l.07.26 3 1.07v1.1l-3 1.07-.07.26a7.59 7.59 0 0 1-.84 2l-.14.23 1.39 2.9a10.66 10.66 0 0 1-.79.78L31 19.46l-.23.13a7.7 7.7 0 0 1-2 .84l-.26.06-1.08 3zm0-16.11A5.61 5.61 0 1 0 32.44 13a5.63 5.63 0 0 0-5.64-5.58z"/><path d="M26.79 3H27l.88 2.45.18.5.52.13a7.18 7.18 0 0 1 1.9.78l.46.27.48-.23 2.36-1.1.28.28-1.12 2.35-.23.48.28.46a7.07 7.07 0 0 1 .79 1.88l.13.52.5.18 2.47.87v.38l-2.47.87-.5.18-.13.52a7.07 7.07 0 0 1-.78 1.9l-.28.46.23.48L34.06 20l-.28.28-2.37-1.12-.48-.23-.46.27a7.18 7.18 0 0 1-1.9.78l-.52.13-.18.5L27 23h-.41l-.88-2.45-.18-.5-.53-.1a7.18 7.18 0 0 1-1.9-.78l-.46-.27-.48.23-2.36 1.11-.28-.24 1.12-2.35.23-.48-.28-.46a7.07 7.07 0 0 1-.79-1.88l-.13-.52-.5-.18-2.47-.87v-.38l2.47-.88.5-.18.13-.52a7.07 7.07 0 0 1 .79-1.88l.28-.46-.23-.48-1.12-2.4.28-.28 2.37 1.12.48.23.46-.27A7.18 7.18 0 0 1 25 6.1l.53-.1.18-.5.88-2.5h.2m0 16.13A6.11 6.11 0 1 0 20.66 13a6.13 6.13 0 0 0 6.14 6.11M26.79 2h-.92l-1.1 3.08A8.18 8.18 0 0 0 22.6 6l-3-1.4a11.12 11.12 0 0 0-1.3 1.29l1.41 3a8.07 8.07 0 0 0-.9 2.15l-3.1 1.1v1.82l3.1 1.1a8.07 8.07 0 0 0 .9 2.15l-1.41 3a11.12 11.12 0 0 0 1.3 1.29l3-1.4a8.18 8.18 0 0 0 2.17.89l1.1 3.01h1.84l1.1-3.08A8.18 8.18 0 0 0 31 20l3 1.4a11.12 11.12 0 0 0 1.3-1.29l-1.41-3a8.07 8.07 0 0 0 .9-2.15l3.1-1.1v-1.82L34.74 11a8.07 8.07 0 0 0-.9-2.15l1.41-3A11.12 11.12 0 0 0 34 4.62L31 6a8.18 8.18 0 0 0-2.17-.89L27.71 2h-.92zm0 16.13A5.11 5.11 0 1 1 31.94 13a5.13 5.13 0 0 1-5.14 5.11z"/><path stroke="currentColor" fill="currentColor" d="M8.73 10.79l.2.57.09.26h-.59l.09-.26.2-.57m3.35 1.39l-.25.53-.12.29a3.93 3.93 0 0 0-.42-.41l.25-.12.55-.26m-6.69 0l.55.26.25.12a3.93 3.93 0 0 0-.42.42l-.13-.26-.25-.53m-.55 3v.59l-.27-.1L4 15.5l.55-.2.27-.1m7.8 0l.26.09.55.2-.55.2-.26.09V15.21M5.76 18a3.94 3.94 0 0 0 .41.41l-.24.12-.55.26.25-.53.13-.26m5.94 0l.12.25.25.53-.55-.26-.24-.11a3.94 3.94 0 0 0 .42-.41m-3.26 1.38H9l-.09.25-.2.57-.2-.57-.09-.25m.31-10.12h-.52L7.58 11a4.63 4.63 0 0 0-1.23.51l-1.68-.79a6.3 6.3 0 0 0-.74.73l.8 1.67a4.57 4.57 0 0 0-.51 1.22L2.47 15v1.04l1.76.62a4.57 4.57 0 0 0 .51 1.22l-.8 1.67a6.3 6.3 0 0 0 .74.73l1.68-.79a4.63 4.63 0 0 0 1.22.51l.62 1.74h1.04L9.87 20a4.63 4.63 0 0 0 1.23-.51l1.68.79a6.3 6.3 0 0 0 .74-.73l-.8-1.67a4.57 4.57 0 0 0 .51-1.22L15 16v-1.04l-1.76-.62a4.57 4.57 0 0 0-.51-1.22l.8-1.67a6.29 6.29 0 0 0-.74-.73l-1.68.79A4.63 4.63 0 0 0 9.87 11l-.62-1.72h-.52zm0 9.13a2.89 2.89 0 1 1 2.91-2.89 2.9 2.9 0 0 1-2.91 2.89zM15.6 37l-.82-2.29-.26-.07A5.71 5.71 0 0 1 13 34l-.23-.14-2.21 1q-.25-.23-.48-.48l1.05-2.2L11 32a5.65 5.65 0 0 1-.63-1.51l-.07-.26-2.3-.81v-.68l2.31-.82.07-.26a5.65 5.65 0 0 1 .62-1.5l.14-.23-1.05-2.2q.23-.25.48-.48l2.21 1 .23-.14a5.74 5.74 0 0 1 1.52-.63l.26-.06.82-2.29h.69l.82 2.29.26.06a5.76 5.76 0 0 1 1.52.63l.23.14 2.21-1q.25.23.48.48l-1.05 2.2.14.23a5.64 5.64 0 0 1 .63 1.51l.07.26 2.31.82v.68l-2.31.82-.07.26A5.64 5.64 0 0 1 20.9 32l-.14.23 1.05 2.2q-.23.25-.48.48l-2.21-1-.23.14a5.73 5.73 0 0 1-1.52.63l-.26.06-.82 2.26h-.69zm.35-12.29a4.4 4.4 0 1 0 4.43 4.4 4.42 4.42 0 0 0-4.43-4.42z"/><path stroke="currentColor" fill="currentColor" d="M15.94 21.7l.6 1.69.18.5.52.13a5.25 5.25 0 0 1 1.39.57l.46.27.48-.23 1.62-.77-.77 1.6-.23.48.28.46a5.16 5.16 0 0 1 .53 1.39l.13.52.5.18 1.67.59-1.67.59-.5.18-.13.52a5.16 5.16 0 0 1-.57 1.38l-.28.46.23.48.77 1.6-1.62-.77-.48-.23-.46.27a5.25 5.25 0 0 1-1.39.57l-.52.13-.18.5-.6 1.69-.6-1.69-.18-.5-.52-.13a5.25 5.25 0 0 1-1.39-.57l-.46-.27-.48.23-1.62.77.77-1.6.23-.48-.28-.46a5.16 5.16 0 0 1-.57-1.38l-.13-.52-.5-.18-1.67-.59 1.67-.59.5-.18.13-.52a5.16 5.16 0 0 1 .57-1.38l.28-.46-.23-.48-.77-1.6 1.62.77.48.23.46-.27a5.25 5.25 0 0 1 1.43-.6l.52-.13.18-.5.6-1.69m0 12.28A4.9 4.9 0 1 0 11 29.09 4.92 4.92 0 0 0 15.95 34m0-13.31h-.7l-.84 2.35a6.25 6.25 0 0 0-1.65.68l-2.27-1.07a8.49 8.49 0 0 0-1 1l1.08 2.25a6.16 6.16 0 0 0-.69 1.64l-2.37.84v1.4l2.37.84a6.16 6.16 0 0 0 .69 1.64l-1.09 2.25a8.49 8.49 0 0 0 1 1l2.27-1.07a6.25 6.25 0 0 0 1.65.68l.84 2.35h1.4l.84-2.35a6.25 6.25 0 0 0 1.65-.68l2.27 1.07a8.49 8.49 0 0 0 1-1l-1.08-2.25a6.16 6.16 0 0 0 .68-1.65l2.37-.84v-1.4L22 27.55a6.16 6.16 0 0 0-.69-1.64l1.08-2.25a8.49 8.49 0 0 0-1-1l-2.27 1.07a6.25 6.25 0 0 0-1.65-.68l-.84-2.35h-.7zm0 12.31a3.9 3.9 0 1 1 3.93-3.9 3.91 3.91 0 0 1-3.93 3.9z"/></symbol><symbol viewBox="0 0 20 20" id="computer"><title>computer</title><path d="M15.58 18H4.42a.51.51 0 0 0 0 1h11.16a.51.51 0 0 0 0-1zM9 13h2v5H9z"/><path d="M18.38 1H1.63a.62.62 0 0 0-.63.63v10.75a.63.63 0 0 0 .63.63h16.75a.63.63 0 0 0 .63-.62V1.63a.62.62 0 0 0-.63-.63zm-1.85 11.34a.38.38 0 1 1 .38-.37.38.38 0 0 1-.38.37zm1 0a.38.38 0 1 1 .38-.37.38.38 0 0 1-.35.34zm.47-1.96a.63.63 0 0 1-.62.63H2.63a.63.63 0 0 1-.63-.63V2.63A.62.62 0 0 1 2.63 2h14.75a.62.62 0 0 1 .63.63z"/></symbol><symbol viewBox="0 0 20 20" id="heart"><title>heart</title><path stroke="currentColor" d="M17.61 6.87c0 6-6.88 11.16-7.74 11.16C9 18 2.08 12.89 2.08 6.87 2.08 2 7.68.51 9.85 3.73 12 .51 17.61 2 17.61 6.87z"/></symbol><symbol viewBox="0 0 20 20" id="menu"><title>menu</title><rect x="2.49" y="2.58" width="14.92" height="3.46" rx="1.18" ry="1.18"/><path d="M16.23 3.08a.69.69 0 0 1 .68.68v1.1a.69.69 0 0 1-.68.68H3.67A.69.69 0 0 1 3 4.86v-1.1a.69.69 0 0 1 .68-.68h12.55m0-1H3.67A1.68 1.68 0 0 0 2 3.76v1.1a1.68 1.68 0 0 0 1.67 1.68h12.56a1.68 1.68 0 0 0 1.68-1.68v-1.1a1.68 1.68 0 0 0-1.68-1.68z"/><rect x="2.49" y="14.04" width="14.92" height="3.46" rx="1.18" ry="1.18"/><path d="M16.23 14.54a.69.69 0 0 1 .68.68v1.1a.69.69 0 0 1-.68.68H3.67a.69.69 0 0 1-.67-.68v-1.1a.69.69 0 0 1 .68-.68h12.55m0-1H3.67A1.68 1.68 0 0 0 2 15.22v1.1A1.68 1.68 0 0 0 3.67 18h12.56a1.68 1.68 0 0 0 1.68-1.68v-1.1a1.68 1.68 0 0 0-1.68-1.68z"/><rect x="2.48" y="8.31" width="14.92" height="3.46" rx="1.18" ry="1.18"/><path d="M16.22 8.81a.69.69 0 0 1 .68.68v1.1a.69.69 0 0 1-.68.68H3.66a.69.69 0 0 1-.66-.68v-1.1a.69.69 0 0 1 .68-.68h12.54m0-1H3.66A1.68 1.68 0 0 0 2 9.49v1.1a1.68 1.68 0 0 0 1.68 1.68h12.54a1.68 1.68 0 0 0 1.68-1.68v-1.1a1.68 1.68 0 0 0-1.68-1.68z"/></symbol><symbol viewBox="0 0 20 20" id="network"><title>network</title><circle cx="10.08" cy="9.79" r="1.93"/><circle cx="14.16" cy="5.77" r="1.23"/><circle cx="3.91" cy="8.05" r="1.23"/><circle cx="16.24" cy="10.71" r="2.07"/><circle cx="5.58" cy="15.47" r="2.07"/><circle cx="6.48" cy="3.7" r="2.07"/><circle cx="13.98" cy="17.26" r="1.23"/><path d="M7.16 4.94L10 9.5zm3.18 4.69l6.16 1zm3.82-3.86L10 9.5zM3.91 8.05l6.34 1.82zm1.47 7.45l4.91-5.75zM14 17.26l-3.87-7.57z"/></symbol><symbol viewBox="0 0 20 20" id="pencil"><title>pencil</title><path fill="currentColor" stroke="currentColor" d="M17 4.18A.89.89 0 0 0 16.78 3a.89.89 0 0 0-1.21-.19l-.57.55 1.4 1.4z"/><path d="M14.504 3.827l.354-.353 1.4 1.4-.354.353zm-.102.117l1.407 1.407L6.46 14.7l-1.407-1.407z"/><path fill="currentColor" stroke="currentColor" d="M4.87 13.46l1.41 1.41-3.06 1.63 1.65-3.04z"/></symbol><symbol viewBox="0 0 20 20" id="search"><title>search</title><path d="M6.9 1a5.87 5.87 0 1 0 5.87 5.87A5.87 5.87 0 0 0 6.9 1zm0 10.83a5 5 0 1 1 5-5 5 5 0 0 1-5.01 5.01z"/><path d="M6.9 1a5.87 5.87 0 1 0 5.87 5.87A5.87 5.87 0 0 0 6.9 1zm0 10.83a5 5 0 1 1 5-5 5 5 0 0 1-5 5z"/><rect stroke="currentColor" fill="currentColor" x="13.44" y="10.54" width="3.41" height="9.05" rx="1.37" ry="1.37" transform="rotate(-45 15.141 15.068)"/></symbol><symbol viewBox="0 0 20 20" id="spanner"><title>spanner</title><path d="M8.19 6.78a3.47 3.47 0 0 0-.63-4.08 3.18 3.18 0 0 0-3-1l1.86 1.93L5.94 6l-2.34.46-1.92-1.92a3.26 3.26 0 0 0 1 3.08 3.49 3.49 0 0 0 4.17.57l8 8.69a1.5 1.5 0 1 0 2.12-2.12l-.13-.11zm8.43 9.79a1 1 0 1 1 0-1.41 1 1 0 0 1 0 1.41z"/></symbol></svg>