<svg xmlns="http://www.w3.org/2000/svg">
	<symbol id = "heart" viewBox="0 0 20 20">
		<title>Heart</title>
		<path stroke="currentColor" d="M17.61,6.87c0,6-6.88,11.16-7.74,11.16h0C9,18,2.08,12.89,2.08,6.87,2.08,2,7.68.51,9.85,3.73,12,.51,17.61,2,17.61,6.87Z"/>
	</symbol>
	<symbol id = "menu" viewBox="0 0 20 20">
		<title>Menu</title>
	  <g>
	    <rect x="2.49" y="2.58" width="14.92" height="3.46" rx="1.18" ry="1.18"/>
	    <path d="M16.23,3.08a.69.69,0,0,1,.68.68v1.1a.69.69,0,0,1-.68.68H3.67A.69.69,0,0,1,3,4.86V3.76a.69.69,0,0,1,.68-.68H16.23m0-1H3.67A1.68,1.68,0,0,0,2,3.76v1.1A1.68,1.68,0,0,0,3.67,6.54H16.23a1.68,1.68,0,0,0,1.68-1.68V3.76a1.68,1.68,0,0,0-1.68-1.68Z"/>
	  </g>
	  <g>
	    <rect x="2.49" y="14.04" width="14.92" height="3.46" rx="1.18" ry="1.18"/>
	    <path d="M16.23,14.54a.69.69,0,0,1,.68.68v1.1a.69.69,0,0,1-.68.68H3.67A.69.69,0,0,1,3,16.32v-1.1a.69.69,0,0,1,.68-.68H16.23m0-1H3.67A1.68,1.68,0,0,0,2,15.22v1.1A1.68,1.68,0,0,0,3.67,18H16.23a1.68,1.68,0,0,0,1.68-1.68v-1.1a1.68,1.68,0,0,0-1.68-1.68Z"/>
	  </g>
	  <g>
	    <rect x="2.48" y="8.31" width="14.92" height="3.46" rx="1.18" ry="1.18"/>
	    <path d="M16.22,8.81a.69.69,0,0,1,.68.68v1.1a.69.69,0,0,1-.68.68H3.66A.69.69,0,0,1,3,10.59V9.49a.69.69,0,0,1,.68-.68H16.22m0-1H3.66A1.68,1.68,0,0,0,2,9.49v1.1a1.68,1.68,0,0,0,1.68,1.68H16.22a1.68,1.68,0,0,0,1.68-1.68V9.49a1.68,1.68,0,0,0-1.68-1.68Z"/>
	  </g>		
	</symbol>
	<symbol id="network" viewBox="0 0 20 20">
		<title>Network</title>
	    <circle cx="10.08" cy="9.79" r="1.93" stroke-miterlimit="10"/>
	    <circle cx="14.16" cy="5.77" r="1.23" stroke-miterlimit="10"/>
	    <circle cx="3.91" cy="8.05" r="1.23" stroke-miterlimit="10"/>
	    <circle cx="16.24" cy="10.71" r="2.07" stroke-miterlimit="10"/>
	    <circle cx="5.58" cy="15.47" r="2.07" stroke-miterlimit="10"/>
	    <circle cx="6.48" cy="3.7" r="2.07" stroke-miterlimit="10"/>
	    <circle cx="13.98" cy="17.26" r="1.23" stroke-miterlimit="10"/>
		<path d="M7.16,4.94,10,9.5Z" stroke-miterlimit="10"/>
		<path d="M10.34,9.63l6.16,1Z" stroke-miterlimit="10"/>
		<path d="M14.16,5.77,10,9.5Z" stroke-miterlimit="10"/>
		<path d="M3.91,8.05l6.34,1.82Z" stroke-miterlimit="10"/>
		<path d="M5.38,15.5l4.91-5.75Z" stroke-miterlimit="10"/>
		<path d="M14,17.26,10.13,9.69Z" stroke-miterlimit="10"/>
	</symbol>
	<symbol id = "pencil" viewBox="0 0 20 20">
		<title>Pencil</title>
	  <path fill="currentColor" stroke="currentColor" d="M17,4.18A.89.89,0,0,0,16.78,3a.89.89,0,0,0-1.21-.19L15,3.36l1.4,1.4Z"/>
	  <rect x="15.13" y="3.36" width="0.5" height="1.98" transform="translate(1.43 12.15) rotate(-45)"/>
  	<rect x="9.43" y="2.71" width="1.99" height="13.22" transform="translate(9.65 -4.64) rotate(45)"/>
  	<polygon fill="currentColor" stroke="currentColor" points="4.87 13.46 6.28 14.87 3.22 16.5 4.87 13.46"/>
	</symbol>
	<symbol id="search" viewBox="0 0 20 20">
		<title>Search</title>
    	<path d="M6.9,1a5.87,5.87,0,1,0,5.87,5.87A5.87,5.87,0,0,0,6.9,1Zm0,10.83a5,5,0,1,1,5-5A5,5,0,0,1,6.89,11.84Z"/>
    	<path d="M6.9,1a5.87,5.87,0,1,0,5.87,5.87A5.87,5.87,0,0,0,6.9,1Zm0,10.83a5,5,0,1,1,5-5,5,5,0,0,1-5,5Z"/> 
  		<rect stroke="currentColor" fill="currentColor" id="handle" x="13.44" y="10.54" width="3.41" height="9.05" rx="1.37" ry="1.37" transform="translate(-6.22 15.12) rotate(-45)"/>
	</symbol>	
	<symbol id="spanner" viewBox="0 0 20 20">
		<title>Spanner</title>
		  <path d="M8.19,6.78A3.47,3.47,0,0,0,7.56,2.7a3.18,3.18,0,0,0-3-1L6.42,3.63h0L5.94,6,3.6,6.46,1.68,4.54a3.26,3.26,0,0,0,1,3.08,3.49,3.49,0,0,0,4.17.57l8,8.69,0,0a1.5,1.5,0,1,0,2.12-2.12l-.13-.11Zm8.43,9.79a1,1,0,1,1,0-1.41A1,1,0,0,1,16.62,16.57Z"/>
	</symbol>		
	<symbol id = "computer" viewBox="0 0 20 20">
		<title>Computer</title>
	    <path d="M15.58,18H4.42a.51.51,0,0,0,0,1H15.58a.51.51,0,0,0,0-1Z"/>
	    <rect x="9" y="13" width="2" height="5"/>
	  	<path d="M18.38,1H1.63A.62.62,0,0,0,1,1.63V12.38a.63.63,0,0,0,.63.63H18.38a.63.63,0,0,0,.63-.62V1.63A.62.62,0,0,0,18.38,1ZM16.53,12.34a.38.38,0,1,1,.38-.37A.38.38,0,0,1,16.53,12.34Zm1,0a.38.38,0,1,1,.38-.37A.38.38,0,0,1,17.56,12.31ZM18,10.38a.63.63,0,0,1-.62.63H2.63A.63.63,0,0,1,2,10.38V2.63A.62.62,0,0,1,2.63,2H17.38a.62.62,0,0,1,.63.63Z"/>
	</symbol>
    <symbol id="cogs" viewBox="0 0 40 40">
    	<title>Cogs</title>
	  <path d="M26.79 23.54h-.56l-1.08-3-.26-.06a7.7 7.7 0 0 1-2-.84l-.23-.13-2.92 1.38a10.67 10.67 0 0 1-.79-.78l1.39-2.9-.14-.23a7.55 7.55 0 0 1-.84-2l-.07-.26-3-1.07v-.55-.55l3-1.07.07-.26a7.55 7.55 0 0 1 .84-2l.14-.23L18.92 6a10.68 10.68 0 0 1 .79-.78l2.92 1.38.23-.13a7.7 7.7 0 0 1 2-.84l.26-.06 1.08-3h1.12l1.08 3 .26.06a7.7 7.7 0 0 1 2 .84l.23.13 2.92-1.38a10.67 10.67 0 0 1 .79.78l-1.39 2.9.14.23a7.6 7.6 0 0 1 .84 2l.07.26 3 1.07v1.1l-3 1.07-.07.26a7.59 7.59 0 0 1-.84 2l-.14.23 1.39 2.9a10.66 10.66 0 0 1-.79.78L31 19.46l-.23.13a7.7 7.7 0 0 1-2 .84l-.26.06-1.08 3zm0-16.11A5.61 5.61 0 1 0 32.44 13a5.63 5.63 0 0 0-5.64-5.58z"/>
	  <path d="M26.79 3H27l.88 2.45.18.5.52.13a7.18 7.18 0 0 1 1.9.78l.46.27.48-.23 2.36-1.1.28.28-1.12 2.35-.23.48.28.46a7.07 7.07 0 0 1 .79 1.88l.13.52.5.18 2.47.87v.38l-2.47.87-.5.18-.13.52a7.07 7.07 0 0 1-.78 1.9l-.28.46.23.48L34.06 20l-.28.28-2.37-1.12-.48-.23-.46.27a7.18 7.18 0 0 1-1.9.78l-.52.13-.18.5L27 23h-.41l-.88-2.45-.18-.5-.53-.1a7.18 7.18 0 0 1-1.9-.78l-.46-.27-.48.23-2.36 1.11-.28-.24 1.12-2.35.23-.48-.28-.46a7.07 7.07 0 0 1-.79-1.88l-.13-.52-.5-.18-2.47-.87v-.19-.19l2.47-.88.5-.18.13-.52a7.07 7.07 0 0 1 .79-1.88l.28-.46-.23-.48-1.12-2.4.28-.28 2.37 1.12.48.23.46-.27A7.18 7.18 0 0 1 25 6.1l.53-.1.18-.5.88-2.5h.2m0 16.13A6.11 6.11 0 1 0 20.66 13a6.13 6.13 0 0 0 6.14 6.11M26.79 2h-.92l-1.1 3.08A8.18 8.18 0 0 0 22.6 6l-3-1.4a11.12 11.12 0 0 0-1.3 1.29l1.41 3a8.07 8.07 0 0 0-.9 2.15l-3.1 1.1v1.82l3.1 1.1a8.07 8.07 0 0 0 .9 2.15l-1.41 3a11.12 11.12 0 0 0 1.3 1.29l3-1.4a8.18 8.18 0 0 0 2.17.89l1.1 3.01h1.84l1.1-3.08A8.18 8.18 0 0 0 31 20l3 1.4a11.12 11.12 0 0 0 1.3-1.29l-1.41-3a8.07 8.07 0 0 0 .9-2.15l3.1-1.1v-.91-.91L34.74 11a8.07 8.07 0 0 0-.9-2.15l1.41-3A11.12 11.12 0 0 0 34 4.62L31 6a8.18 8.18 0 0 0-2.17-.89L27.71 2h-.92zm0 16.13A5.11 5.11 0 1 1 31.94 13a5.13 5.13 0 0 1-5.14 5.11zM8.57 21.23L8 19.55l-.26-.07A4.16 4.16 0 0 1 6.61 19l-.23-.13-1.62.77-.23-.23.77-1.61-.14-.23a4.09 4.09 0 0 1-.45-1.08l-.07-.26L3 15.66v-.31l1.69-.6.07-.26a4.09 4.09 0 0 1 .45-1.08l.14-.23-.77-1.61.23-.23 1.62.77.18-.11a4.16 4.16 0 0 1 1.09-.45l.3-.1.6-1.68h.32l.6 1.68.26.07a4.15 4.15 0 0 1 1.09.45l.23.13 1.62-.77.23.23-.77 1.61.14.23a4.06 4.06 0 0 1 .45 1.08l.07.26 1.69.6v.31l-1.69.6-.07.26a4.06 4.06 0 0 1-.45 1.08l-.14.23.77 1.61-.23.23-1.62-.77-.23.13a4.15 4.15 0 0 1-1.09.45l-.26.07-.6 1.68h-.35zm.17-9.12a3.39 3.39 0 1 0 3.41 3.39 3.41 3.41 0 0 0-3.42-3.39z"/>
	  <path stroke="currentColor" fill="currentColor" d="M8.73 10.79l.2.57.09.26h-.59l.09-.26.2-.57m3.35 1.39l-.25.53-.12.29a3.93 3.93 0 0 0-.42-.41l.25-.12.55-.26m-6.69 0l.55.26.25.12a3.93 3.93 0 0 0-.42.42l-.13-.26-.25-.53m-.55 3v.59l-.27-.1L4 15.5l.55-.2.27-.1m7.8 0l.26.09.55.2-.55.2-.26.09v-.28-.29M5.76 18a3.94 3.94 0 0 0 .41.41l-.24.12-.55.26.25-.53.13-.26m5.94 0l.12.25.25.53-.55-.26-.24-.11a3.94 3.94 0 0 0 .42-.41m-3.26 1.38H9l-.09.25-.2.57-.2-.57-.09-.25m.31-10.12h-.52L7.58 11a4.63 4.63 0 0 0-1.23.51l-1.68-.79a6.3 6.3 0 0 0-.74.73l.8 1.67a4.57 4.57 0 0 0-.51 1.22L2.47 15v1.04l1.76.62a4.57 4.57 0 0 0 .51 1.22l-.8 1.67a6.3 6.3 0 0 0 .74.73l1.68-.79a4.63 4.63 0 0 0 1.22.51l.62 1.74h1.04L9.87 20a4.63 4.63 0 0 0 1.23-.51l1.68.79a6.3 6.3 0 0 0 .74-.73l-.8-1.67a4.57 4.57 0 0 0 .51-1.22L15 16v-.52-.52l-1.76-.62a4.57 4.57 0 0 0-.51-1.22l.8-1.67a6.29 6.29 0 0 0-.74-.73l-1.68.79A4.63 4.63 0 0 0 9.87 11l-.62-1.72h-.52zm0 9.13a2.89 2.89 0 1 1 2.91-2.89 2.9 2.9 0 0 1-2.91 2.89z"/>
	  <path stroke="currentColor" fill="currentColor" d="M15.6 37l-.82-2.29-.26-.07A5.71 5.71 0 0 1 13 34l-.23-.14-2.21 1q-.25-.23-.48-.48l1.05-2.2L11 32a5.65 5.65 0 0 1-.63-1.51l-.07-.26-2.3-.81v-.34-.34l2.31-.82.07-.26a5.65 5.65 0 0 1 .62-1.5l.14-.23-1.05-2.2q.23-.25.48-.48l2.21 1 .23-.14a5.74 5.74 0 0 1 1.52-.63l.26-.06.82-2.29h.69l.82 2.29.26.06a5.76 5.76 0 0 1 1.52.63l.23.14 2.21-1q.25.23.48.48l-1.05 2.2.14.23a5.64 5.64 0 0 1 .63 1.51l.07.26 2.31.82v.68l-2.31.82-.07.26A5.64 5.64 0 0 1 20.9 32l-.14.23 1.05 2.2q-.23.25-.48.48l-2.21-1-.23.14a5.73 5.73 0 0 1-1.52.63l-.26.06-.82 2.26h-.69zm.35-12.29a4.4 4.4 0 1 0 4.43 4.4 4.42 4.42 0 0 0-4.43-4.42z"/>
	  <path stroke="currentColor" fill="currentColor" d="M15.94 21.7l.6 1.69.18.5.52.13a5.25 5.25 0 0 1 1.39.57l.46.27.48-.23 1.62-.77-.77 1.6-.23.48.28.46a5.16 5.16 0 0 1 .53 1.39l.13.52.5.18 1.67.59-1.67.59-.5.18-.13.52a5.16 5.16 0 0 1-.57 1.38l-.28.46.23.48.77 1.6-1.62-.77-.48-.23-.46.27a5.25 5.25 0 0 1-1.39.57l-.52.13-.18.5-.6 1.69-.6-1.69-.18-.5-.52-.13a5.25 5.25 0 0 1-1.39-.57l-.46-.27-.48.23-1.62.77.77-1.6.23-.48-.28-.46a5.16 5.16 0 0 1-.57-1.38l-.13-.52-.5-.18-1.67-.59 1.67-.59.5-.18.13-.52a5.16 5.16 0 0 1 .57-1.38l.28-.46-.23-.48-.77-1.6 1.62.77.48.23.46-.27a5.25 5.25 0 0 1 1.43-.6l.52-.13.18-.5.6-1.69m0 12.28A4.9 4.9 0 1 0 11 29.09 4.92 4.92 0 0 0 15.95 34m0-13.31h-.7l-.84 2.35a6.25 6.25 0 0 0-1.65.68l-2.27-1.07a8.49 8.49 0 0 0-1 1l1.08 2.25a6.16 6.16 0 0 0-.69 1.64l-2.37.84v1.4l2.37.84a6.16 6.16 0 0 0 .69 1.64l-1.09 2.25a8.49 8.49 0 0 0 1 1l2.27-1.07a6.25 6.25 0 0 0 1.65.68l.84 2.35h1.4l.84-2.35a6.25 6.25 0 0 0 1.65-.68l2.27 1.07a8.49 8.49 0 0 0 1-1l-1.08-2.25a6.16 6.16 0 0 0 .68-1.65l2.37-.84v-.7-.7L22 27.55a6.16 6.16 0 0 0-.69-1.64l1.08-2.25a8.49 8.49 0 0 0-1-1l-2.27 1.07a6.25 6.25 0 0 0-1.65-.68l-.84-2.35h-.7zm0 12.31a3.9 3.9 0 1 1 3.93-3.9 3.91 3.91 0 0 1-3.93 3.9z"/>
  </symbol>
</svg>