<svg id="Layer_1" data-name="Layer 1" xmlns="http://www.w3.org/2000/svg" width="20" height="20" viewBox="0 0 20 20">
  <title>computer</title>
  <g>
    <path d="M15.58,18H4.42a.51.51,0,0,0,0,1H15.58a.51.51,0,0,0,0-1Z"/>
    <rect x="9" y="13" width="2" height="5"/>
  </g>
  <path d="M18.38,1H1.63A.62.62,0,0,0,1,1.63V12.38a.63.63,0,0,0,.63.63H18.38a.63.63,0,0,0,.63-.62V1.63A.62.62,0,0,0,18.38,1ZM16.53,12.34a.38.38,0,1,1,.38-.37A.38.38,0,0,1,16.53,12.34Zm1,0a.38.38,0,1,1,.38-.37A.38.38,0,0,1,17.56,12.31ZM18,10.38a.63.63,0,0,1-.62.63H2.63A.63.63,0,0,1,2,10.38V2.63A.62.62,0,0,1,2.63,2H17.38a.62.62,0,0,1,.63.63Z"/>
</svg>
