<svg id="Layer_1" data-name="Layer 1" xmlns="http://www.w3.org/2000/svg" width="20" height="20" viewBox="0 0 20 20">
  <title>menu</title>
  <g>
    <rect x="2.49" y="2.58" width="14.92" height="3.46" rx="1.18" ry="1.18"/>
    <path d="M16.23,3.08a.69.69,0,0,1,.68.68v1.1a.69.69,0,0,1-.68.68H3.67A.69.69,0,0,1,3,4.86V3.76a.69.69,0,0,1,.68-.68H16.23m0-1H3.67A1.68,1.68,0,0,0,2,3.76v1.1A1.68,1.68,0,0,0,3.67,6.54H16.23a1.68,1.68,0,0,0,1.68-1.68V3.76a1.68,1.68,0,0,0-1.68-1.68Z"/>
  </g>
  <g>
    <rect x="2.49" y="14.04" width="14.92" height="3.46" rx="1.18" ry="1.18"/>
    <path d="M16.23,14.54a.69.69,0,0,1,.68.68v1.1a.69.69,0,0,1-.68.68H3.67A.69.69,0,0,1,3,16.32v-1.1a.69.69,0,0,1,.68-.68H16.23m0-1H3.67A1.68,1.68,0,0,0,2,15.22v1.1A1.68,1.68,0,0,0,3.67,18H16.23a1.68,1.68,0,0,0,1.68-1.68v-1.1a1.68,1.68,0,0,0-1.68-1.68Z"/>
  </g>
  <g>
    <rect x="2.48" y="8.31" width="14.92" height="3.46" rx="1.18" ry="1.18"/>
    <path d="M16.22,8.81a.69.69,0,0,1,.68.68v1.1a.69.69,0,0,1-.68.68H3.66A.69.69,0,0,1,3,10.59V9.49a.69.69,0,0,1,.68-.68H16.22m0-1H3.66A1.68,1.68,0,0,0,2,9.49v1.1a1.68,1.68,0,0,0,1.68,1.68H16.22a1.68,1.68,0,0,0,1.68-1.68V9.49a1.68,1.68,0,0,0-1.68-1.68Z"/>
  </g>
</svg>
